<mxfile host="app.diagrams.net" modified="2024-06-23T07:29:13.402Z" agent="Mozilla/5.0 (Windows NT 10.0; Win64; x64) AppleWebKit/537.36 (KHTML, like Gecko) Chrome/126.0.0.0 Safari/537.36 Edg/126.0.0.0" etag="qKc5Kv83SgXm-CQwqL5D" version="24.5.5" type="device">
  <diagram name="第 1 页" id="_QJL8WVnxSO4UtWi_0cX">
    <mxGraphModel dx="1556" dy="881" grid="1" gridSize="10" guides="1" tooltips="1" connect="1" arrows="1" fold="1" page="1" pageScale="1" pageWidth="827" pageHeight="1169" math="0" shadow="0">
      <root>
        <mxCell id="0" />
        <mxCell id="1" parent="0" />
        <mxCell id="AywQPvQ3oGfYVBX91i0b-19" value="" style="group;fillColor=#f8cecc;strokeColor=#b85450;" vertex="1" connectable="0" parent="1">
          <mxGeometry x="200" y="420" width="480" height="60" as="geometry" />
        </mxCell>
        <mxCell id="AywQPvQ3oGfYVBX91i0b-13" value="" style="rounded=0;whiteSpace=wrap;html=1;" vertex="1" parent="AywQPvQ3oGfYVBX91i0b-19">
          <mxGeometry width="480" height="60" as="geometry" />
        </mxCell>
        <mxCell id="AywQPvQ3oGfYVBX91i0b-14" value="a.txt" style="rounded=0;whiteSpace=wrap;html=1;fillColor=#f8cecc;strokeColor=#b85450;" vertex="1" parent="AywQPvQ3oGfYVBX91i0b-19">
          <mxGeometry x="70" y="15" width="70" height="30" as="geometry" />
        </mxCell>
        <mxCell id="AywQPvQ3oGfYVBX91i0b-15" value="b.txt" style="rounded=0;whiteSpace=wrap;html=1;fillColor=#dae8fc;strokeColor=#6c8ebf;" vertex="1" parent="AywQPvQ3oGfYVBX91i0b-19">
          <mxGeometry x="205" y="15" width="70" height="30" as="geometry" />
        </mxCell>
        <mxCell id="AywQPvQ3oGfYVBX91i0b-16" value="c.txt" style="rounded=0;whiteSpace=wrap;html=1;fillColor=#d5e8d4;strokeColor=#82b366;" vertex="1" parent="AywQPvQ3oGfYVBX91i0b-19">
          <mxGeometry x="340" y="15" width="70" height="30" as="geometry" />
        </mxCell>
        <mxCell id="AywQPvQ3oGfYVBX91i0b-22" value="" style="group" vertex="1" connectable="0" parent="1">
          <mxGeometry x="200" y="585" width="480" height="210" as="geometry" />
        </mxCell>
        <mxCell id="AywQPvQ3oGfYVBX91i0b-1" value="" style="rounded=0;whiteSpace=wrap;html=1;" vertex="1" parent="AywQPvQ3oGfYVBX91i0b-22">
          <mxGeometry width="480" height="210" as="geometry" />
        </mxCell>
        <mxCell id="AywQPvQ3oGfYVBX91i0b-20" value="" style="group" vertex="1" connectable="0" parent="AywQPvQ3oGfYVBX91i0b-22">
          <mxGeometry x="20" y="30" width="440" height="60" as="geometry" />
        </mxCell>
        <mxCell id="AywQPvQ3oGfYVBX91i0b-3" value="" style="rounded=0;whiteSpace=wrap;html=1;" vertex="1" parent="AywQPvQ3oGfYVBX91i0b-20">
          <mxGeometry width="440" height="60" as="geometry" />
        </mxCell>
        <mxCell id="AywQPvQ3oGfYVBX91i0b-8" value="a.txt" style="rounded=0;whiteSpace=wrap;html=1;fillColor=#dae8fc;strokeColor=#6c8ebf;" vertex="1" parent="AywQPvQ3oGfYVBX91i0b-20">
          <mxGeometry x="50" y="15" width="70" height="30" as="geometry" />
        </mxCell>
        <mxCell id="AywQPvQ3oGfYVBX91i0b-9" value="b.txt" style="rounded=0;whiteSpace=wrap;html=1;fillColor=#dae8fc;strokeColor=#6c8ebf;" vertex="1" parent="AywQPvQ3oGfYVBX91i0b-20">
          <mxGeometry x="185" y="15" width="70" height="30" as="geometry" />
        </mxCell>
        <mxCell id="AywQPvQ3oGfYVBX91i0b-21" value="" style="group" vertex="1" connectable="0" parent="AywQPvQ3oGfYVBX91i0b-22">
          <mxGeometry x="20" y="120" width="440" height="60" as="geometry" />
        </mxCell>
        <mxCell id="AywQPvQ3oGfYVBX91i0b-4" value="" style="rounded=0;whiteSpace=wrap;html=1;" vertex="1" parent="AywQPvQ3oGfYVBX91i0b-21">
          <mxGeometry width="440" height="60" as="geometry" />
        </mxCell>
        <mxCell id="AywQPvQ3oGfYVBX91i0b-5" value="a.txt" style="rounded=0;whiteSpace=wrap;html=1;fillColor=#d5e8d4;strokeColor=#82b366;" vertex="1" parent="AywQPvQ3oGfYVBX91i0b-21">
          <mxGeometry x="50" y="15" width="70" height="30" as="geometry" />
        </mxCell>
        <mxCell id="AywQPvQ3oGfYVBX91i0b-7" value="c.txt" style="rounded=0;whiteSpace=wrap;html=1;fillColor=#d5e8d4;strokeColor=#82b366;" vertex="1" parent="AywQPvQ3oGfYVBX91i0b-21">
          <mxGeometry x="320" y="15" width="70" height="30" as="geometry" />
        </mxCell>
        <mxCell id="AywQPvQ3oGfYVBX91i0b-39" value="" style="endArrow=none;dashed=1;html=1;rounded=0;exitX=0.5;exitY=0;exitDx=0;exitDy=0;entryX=0.5;entryY=1;entryDx=0;entryDy=0;fillColor=#d5e8d4;strokeColor=#82b366;" edge="1" parent="AywQPvQ3oGfYVBX91i0b-22" source="AywQPvQ3oGfYVBX91i0b-5" target="AywQPvQ3oGfYVBX91i0b-8">
          <mxGeometry width="50" height="50" relative="1" as="geometry">
            <mxPoint x="190" y="45" as="sourcePoint" />
            <mxPoint x="240" y="-5" as="targetPoint" />
          </mxGeometry>
        </mxCell>
        <mxCell id="AywQPvQ3oGfYVBX91i0b-29" value="" style="rounded=0;whiteSpace=wrap;html=1;" vertex="1" parent="1">
          <mxGeometry x="200" y="500" width="480" height="60" as="geometry" />
        </mxCell>
        <mxCell id="AywQPvQ3oGfYVBX91i0b-30" value="&lt;font style=&quot;font-size: 20px;&quot;&gt;lowerdir&lt;/font&gt;" style="text;html=1;align=center;verticalAlign=middle;resizable=0;points=[];autosize=1;strokeColor=none;fillColor=none;fontStyle=1" vertex="1" parent="1">
          <mxGeometry x="100" y="580" width="90" height="40" as="geometry" />
        </mxCell>
        <mxCell id="AywQPvQ3oGfYVBX91i0b-31" value="A" style="text;html=1;align=center;verticalAlign=middle;resizable=0;points=[];autosize=1;strokeColor=#6c8ebf;fillColor=#dae8fc;fontSize=16;fontStyle=1" vertex="1" parent="1">
          <mxGeometry x="160" y="630" width="30" height="30" as="geometry" />
        </mxCell>
        <mxCell id="AywQPvQ3oGfYVBX91i0b-32" value="B" style="text;html=1;align=center;verticalAlign=middle;resizable=0;points=[];autosize=1;strokeColor=#82b366;fillColor=#d5e8d4;fontSize=16;fontStyle=1" vertex="1" parent="1">
          <mxGeometry x="160" y="720" width="30" height="30" as="geometry" />
        </mxCell>
        <mxCell id="AywQPvQ3oGfYVBX91i0b-33" style="edgeStyle=orthogonalEdgeStyle;rounded=0;orthogonalLoop=1;jettySize=auto;html=1;exitX=0.5;exitY=0;exitDx=0;exitDy=0;entryX=0.5;entryY=1;entryDx=0;entryDy=0;dashed=1;fillColor=#d5e8d4;strokeColor=#82b366;" edge="1" parent="1" source="AywQPvQ3oGfYVBX91i0b-7" target="AywQPvQ3oGfYVBX91i0b-16">
          <mxGeometry relative="1" as="geometry" />
        </mxCell>
        <mxCell id="AywQPvQ3oGfYVBX91i0b-34" style="edgeStyle=orthogonalEdgeStyle;rounded=0;orthogonalLoop=1;jettySize=auto;html=1;exitX=0.5;exitY=0;exitDx=0;exitDy=0;entryX=0.5;entryY=1;entryDx=0;entryDy=0;dashed=1;fillColor=#dae8fc;strokeColor=#6c8ebf;" edge="1" parent="1" source="AywQPvQ3oGfYVBX91i0b-9" target="AywQPvQ3oGfYVBX91i0b-15">
          <mxGeometry relative="1" as="geometry" />
        </mxCell>
        <mxCell id="AywQPvQ3oGfYVBX91i0b-40" value="&lt;font style=&quot;font-size: 20px;&quot;&gt;upperdir&lt;/font&gt;" style="text;html=1;align=center;verticalAlign=middle;resizable=0;points=[];autosize=1;strokeColor=none;fillColor=none;fontStyle=1" vertex="1" parent="1">
          <mxGeometry x="95" y="500" width="100" height="40" as="geometry" />
        </mxCell>
        <mxCell id="AywQPvQ3oGfYVBX91i0b-41" value="&lt;font style=&quot;font-size: 20px;&quot;&gt;mergedir&lt;/font&gt;" style="text;html=1;align=center;verticalAlign=middle;resizable=0;points=[];autosize=1;strokeColor=none;fillColor=none;fontStyle=1" vertex="1" parent="1">
          <mxGeometry x="95" y="410" width="100" height="40" as="geometry" />
        </mxCell>
        <mxCell id="AywQPvQ3oGfYVBX91i0b-43" style="edgeStyle=orthogonalEdgeStyle;rounded=0;orthogonalLoop=1;jettySize=auto;html=1;exitX=0.5;exitY=0;exitDx=0;exitDy=0;entryX=0.5;entryY=1;entryDx=0;entryDy=0;dashed=1;fillColor=#f8cecc;strokeColor=#b85450;" edge="1" parent="1" source="AywQPvQ3oGfYVBX91i0b-42" target="AywQPvQ3oGfYVBX91i0b-14">
          <mxGeometry relative="1" as="geometry" />
        </mxCell>
        <mxCell id="AywQPvQ3oGfYVBX91i0b-42" value="a.txt" style="rounded=0;whiteSpace=wrap;html=1;fillColor=#f8cecc;strokeColor=#b85450;" vertex="1" parent="1">
          <mxGeometry x="270" y="515" width="70" height="30" as="geometry" />
        </mxCell>
        <mxCell id="AywQPvQ3oGfYVBX91i0b-45" value="" style="endArrow=none;dashed=1;html=1;rounded=0;exitX=0.5;exitY=0;exitDx=0;exitDy=0;entryX=0.5;entryY=1;entryDx=0;entryDy=0;fillColor=#dae8fc;strokeColor=#6c8ebf;" edge="1" parent="1" source="AywQPvQ3oGfYVBX91i0b-8" target="AywQPvQ3oGfYVBX91i0b-42">
          <mxGeometry width="50" height="50" relative="1" as="geometry">
            <mxPoint x="40" y="610" as="sourcePoint" />
            <mxPoint x="90" y="560" as="targetPoint" />
          </mxGeometry>
        </mxCell>
        <mxCell id="AywQPvQ3oGfYVBX91i0b-46" value="" style="endArrow=none;dashed=1;html=1;rounded=0;strokeWidth=3;" edge="1" parent="1">
          <mxGeometry width="50" height="50" relative="1" as="geometry">
            <mxPoint x="100" y="490" as="sourcePoint" />
            <mxPoint x="720" y="490" as="targetPoint" />
          </mxGeometry>
        </mxCell>
      </root>
    </mxGraphModel>
  </diagram>
</mxfile>
